<?xml version="1.0" encoding="UTF-8"?>
<svg xmlns="http://www.w3.org/2000/svg" xmlns:xlink="http://www.w3.org/1999/xlink" width="45pt" height="28pt" viewBox="0 0 45 28" version="1.1">
<g id="surface1343">
<path style=" stroke:none;fill-rule:evenodd;fill:rgb(45.098039%,45.098039%,87.058824%);fill-opacity:1;" d="M 2.085938 16.511719 L 4.921875 16.511719 L 4.921875 13.394531 L 2.085938 13.394531 Z M 2.085938 16.511719 "/>
<path style=" stroke:none;fill-rule:evenodd;fill:rgb(45.098039%,45.098039%,87.058824%);fill-opacity:1;" d="M 2.085938 11.695312 L 4.921875 11.695312 L 4.921875 8.578125 L 2.085938 8.578125 Z M 2.085938 11.695312 "/>
<path style=" stroke:none;fill-rule:evenodd;fill:rgb(45.098039%,45.098039%,87.058824%);fill-opacity:1;" d="M 26.171875 12.523438 L 29.289062 12.523438 L 29.289062 9.6875 L 26.171875 9.6875 Z M 26.171875 12.523438 "/>
<path style=" stroke:none;fill-rule:evenodd;fill:rgb(45.098039%,45.098039%,87.058824%);fill-opacity:1;" d="M 26.171875 16.84375 L 29.289062 16.84375 L 29.289062 14.007812 L 26.171875 14.007812 Z M 26.171875 16.84375 "/>
<path style=" stroke:none;fill-rule:evenodd;fill:rgb(45.098039%,45.098039%,87.058824%);fill-opacity:1;" d="M 26.171875 21.160156 L 29.289062 21.160156 L 29.289062 18.324219 L 26.171875 18.324219 Z M 26.171875 21.160156 "/>
<path style=" stroke:none;fill-rule:evenodd;fill:rgb(45.098039%,45.098039%,87.058824%);fill-opacity:1;" d="M 26.171875 25.480469 L 29.289062 25.480469 L 29.289062 22.644531 L 26.171875 22.644531 Z M 26.171875 25.480469 "/>
<path style=" stroke:none;fill-rule:evenodd;fill:rgb(45.098039%,45.098039%,87.058824%);fill-opacity:1;" d="M 30.992188 25.480469 L 34.109375 25.480469 L 34.109375 22.644531 L 30.992188 22.644531 Z M 30.992188 25.480469 "/>
<path style=" stroke:none;fill-rule:evenodd;fill:rgb(45.098039%,45.098039%,87.058824%);fill-opacity:1;" d="M 30.992188 21.160156 L 34.109375 21.160156 L 34.109375 18.324219 L 30.992188 18.324219 Z M 30.992188 21.160156 "/>
<path style=" stroke:none;fill-rule:evenodd;fill:rgb(45.098039%,45.098039%,87.058824%);fill-opacity:1;" d="M 30.992188 16.84375 L 34.109375 16.84375 L 34.109375 14.007812 L 30.992188 14.007812 Z M 30.992188 16.84375 "/>
<path style=" stroke:none;fill-rule:evenodd;fill:rgb(45.098039%,45.098039%,87.058824%);fill-opacity:1;" d="M 30.992188 12.523438 L 34.109375 12.523438 L 34.109375 9.6875 L 30.992188 9.6875 Z M 30.992188 12.523438 "/>
<path style=" stroke:none;fill-rule:evenodd;fill:rgb(45.098039%,45.098039%,87.058824%);fill-opacity:1;" d="M 30.992188 8.203125 L 34.109375 8.203125 L 34.109375 5.367188 L 30.992188 5.367188 Z M 30.992188 8.203125 "/>
<path style=" stroke:none;fill-rule:evenodd;fill:rgb(45.098039%,45.098039%,87.058824%);fill-opacity:1;" d="M 30.992188 3.882812 L 34.109375 3.882812 L 34.109375 1.046875 L 30.992188 1.046875 Z M 30.992188 3.882812 "/>
<path style=" stroke:none;fill-rule:evenodd;fill:rgb(45.098039%,45.098039%,87.058824%);fill-opacity:1;" d="M 26.171875 3.882812 L 29.289062 3.882812 L 29.289062 1.046875 L 26.171875 1.046875 Z M 26.171875 3.882812 "/>
<path style=" stroke:none;fill-rule:evenodd;fill:rgb(45.098039%,45.098039%,87.058824%);fill-opacity:1;" d="M 26.171875 8.203125 L 29.289062 8.203125 L 29.289062 5.367188 L 26.171875 5.367188 Z M 26.171875 8.203125 "/>
<path style=" stroke:none;fill-rule:evenodd;fill:rgb(45.098039%,45.098039%,87.058824%);fill-opacity:1;" d="M 18.117188 7.613281 L 19.84375 7.613281 L 19.84375 1.347656 L 18.117188 1.347656 Z M 18.117188 7.613281 "/>
<path style=" stroke:none;fill-rule:evenodd;fill:rgb(45.098039%,45.098039%,87.058824%);fill-opacity:1;" d="M 14.515625 7.613281 L 16.242188 7.613281 L 16.242188 1.347656 L 14.515625 1.347656 Z M 14.515625 7.613281 "/>
<path style=" stroke:none;fill-rule:evenodd;fill:rgb(45.098039%,45.098039%,87.058824%);fill-opacity:1;" d="M 10.917969 7.613281 L 12.644531 7.613281 L 12.644531 1.347656 L 10.917969 1.347656 Z M 10.917969 7.613281 "/>
<path style=" stroke:none;fill-rule:evenodd;fill:rgb(45.098039%,45.098039%,87.058824%);fill-opacity:1;" d="M 7.316406 7.613281 L 9.042969 7.613281 L 9.042969 1.347656 L 7.316406 1.347656 Z M 7.316406 7.613281 "/>
<path style=" stroke:none;fill-rule:evenodd;fill:rgb(45.098039%,45.098039%,87.058824%);fill-opacity:1;" d="M 7.316406 26.691406 L 9.042969 26.691406 L 9.042969 20.425781 L 7.316406 20.425781 Z M 7.316406 26.691406 "/>
<path style=" stroke:none;fill-rule:evenodd;fill:rgb(45.098039%,45.098039%,87.058824%);fill-opacity:1;" d="M 10.917969 26.691406 L 12.644531 26.691406 L 12.644531 20.425781 L 10.917969 20.425781 Z M 10.917969 26.691406 "/>
<path style=" stroke:none;fill-rule:evenodd;fill:rgb(45.098039%,45.098039%,87.058824%);fill-opacity:1;" d="M 14.515625 26.691406 L 16.242188 26.691406 L 16.242188 20.425781 L 14.515625 20.425781 Z M 14.515625 26.691406 "/>
<path style=" stroke:none;fill-rule:evenodd;fill:rgb(45.098039%,45.098039%,87.058824%);fill-opacity:1;" d="M 18.117188 26.691406 L 19.84375 26.691406 L 19.84375 20.425781 L 18.117188 20.425781 Z M 18.117188 26.691406 "/>
<path style=" stroke:none;fill-rule:evenodd;fill:rgb(45.098039%,45.098039%,87.058824%);fill-opacity:1;" d="M 36.394531 13.019531 L 39.230469 13.019531 L 39.230469 9.050781 L 36.394531 9.050781 Z M 36.394531 13.019531 "/>
<path style=" stroke:none;fill-rule:evenodd;fill:rgb(45.098039%,45.098039%,87.058824%);fill-opacity:1;" d="M 40.929688 13.019531 L 43.765625 13.019531 L 43.765625 9.050781 L 40.929688 9.050781 Z M 40.929688 13.019531 "/>
<path style=" stroke:none;fill-rule:evenodd;fill:rgb(45.098039%,45.098039%,87.058824%);fill-opacity:1;" d="M 40.929688 4.515625 L 43.765625 4.515625 L 43.765625 0.546875 L 40.929688 0.546875 Z M 40.929688 4.515625 "/>
<path style=" stroke:none;fill-rule:evenodd;fill:rgb(45.098039%,45.098039%,87.058824%);fill-opacity:1;" d="M 36.394531 4.515625 L 39.230469 4.515625 L 39.230469 0.546875 L 36.394531 0.546875 Z M 36.394531 4.515625 "/>
</g>
</svg>
