%
M48
M72
T01C0.01300
T02C0.02500
T03C0.03543
T04C0.04000
%
T01
X30600Y27250
X37250Y17100
X56250Y33250
X63850Y23050
X78200Y16400
X94300Y24800
X94300Y28300
X94750Y19250
X96750Y39250
X107950Y45800
X92900Y51400
X85200Y53850
X74700Y43350
X79250Y40200
X47750Y48950
X45650Y43350
X32350Y47200
X21750Y44250
T02
X25900Y51065
T03
X29750Y22250
X29750Y32250
X39750Y32250
X39750Y22250
X39750Y42250
X29750Y42250
X25900Y58545
T04
X6750Y45250
X6750Y35250
X112750Y40250
M30
