G75*
%MOIN*%
%OFA0B0*%
%FSLAX25Y25*%
%IPPOS*%
%LPD*%
%AMOC8*
5,1,8,0,0,1.08239X$1,22.5*
%
%ADD10C,0.00300*%
%ADD11C,0.02200*%
%ADD12C,0.00500*%
%ADD13C,0.00800*%
%ADD14R,0.01800X0.03000*%
%ADD15C,0.00600*%
D10*
X0070310Y0059200D02*
X0070310Y0061135D01*
X0071278Y0062102D01*
X0072245Y0061135D01*
X0072245Y0059200D01*
X0072245Y0060651D02*
X0070310Y0060651D01*
X0071278Y0063200D02*
X0071278Y0066102D01*
X0072245Y0066102D02*
X0070310Y0066102D01*
X0069313Y0066102D02*
X0068346Y0066102D01*
X0068829Y0066102D02*
X0068829Y0063200D01*
X0068346Y0063200D02*
X0069313Y0063200D01*
X0067334Y0063200D02*
X0067334Y0066102D01*
X0065399Y0066102D02*
X0065399Y0063200D01*
X0066367Y0064167D01*
X0067334Y0063200D01*
X0064388Y0063684D02*
X0063904Y0063200D01*
X0062936Y0063200D01*
X0062453Y0063684D01*
X0061441Y0063684D02*
X0060957Y0063200D01*
X0059990Y0063200D01*
X0059506Y0063684D01*
X0059506Y0065619D01*
X0059990Y0066102D01*
X0060957Y0066102D01*
X0061441Y0065619D01*
X0061441Y0064651D02*
X0060474Y0064651D01*
X0061441Y0064651D02*
X0061441Y0063684D01*
X0062453Y0065135D02*
X0062936Y0064651D01*
X0063904Y0064651D01*
X0064388Y0064167D01*
X0064388Y0063684D01*
X0064388Y0065619D02*
X0063904Y0066102D01*
X0062936Y0066102D01*
X0062453Y0065619D01*
X0062453Y0065135D01*
X0058495Y0066102D02*
X0058495Y0063200D01*
X0056560Y0066102D01*
X0056560Y0063200D01*
X0055563Y0063200D02*
X0054595Y0063200D01*
X0055079Y0063200D02*
X0055079Y0066102D01*
X0054595Y0066102D02*
X0055563Y0066102D01*
X0053584Y0065619D02*
X0053584Y0064651D01*
X0053100Y0064167D01*
X0051649Y0064167D01*
X0051649Y0063200D02*
X0051649Y0066102D01*
X0053100Y0066102D01*
X0053584Y0065619D01*
X0052616Y0064167D02*
X0053584Y0063200D01*
X0050637Y0064651D02*
X0050637Y0065619D01*
X0050153Y0066102D01*
X0048702Y0066102D01*
X0048702Y0063200D01*
X0048702Y0064167D02*
X0050153Y0064167D01*
X0050637Y0064651D01*
X0047691Y0064167D02*
X0047691Y0063684D01*
X0047207Y0063200D01*
X0046239Y0063200D01*
X0045756Y0063684D01*
X0046239Y0064651D02*
X0047207Y0064651D01*
X0047691Y0064167D01*
X0047691Y0065619D02*
X0047207Y0066102D01*
X0046239Y0066102D01*
X0045756Y0065619D01*
X0045756Y0065135D01*
X0046239Y0064651D01*
X0073257Y0063684D02*
X0073740Y0063200D01*
X0074708Y0063200D01*
X0075192Y0063684D01*
X0076203Y0063200D02*
X0076203Y0066102D01*
X0075192Y0065619D02*
X0074708Y0066102D01*
X0073740Y0066102D01*
X0073257Y0065619D01*
X0073257Y0063684D01*
X0073257Y0062102D02*
X0075192Y0062102D01*
X0074224Y0062102D02*
X0074224Y0059200D01*
X0076188Y0058102D02*
X0076188Y0055200D01*
X0075221Y0055200D02*
X0077156Y0055200D01*
X0078167Y0055684D02*
X0078651Y0055200D01*
X0079619Y0055200D01*
X0080102Y0055684D01*
X0080102Y0056167D01*
X0079619Y0056651D01*
X0078167Y0056651D01*
X0078167Y0055684D01*
X0078167Y0056651D02*
X0079135Y0057619D01*
X0080102Y0058102D01*
X0080117Y0059200D02*
X0079150Y0059200D01*
X0079633Y0059200D02*
X0079633Y0062102D01*
X0079150Y0062102D02*
X0080117Y0062102D01*
X0081114Y0062102D02*
X0083049Y0059200D01*
X0083049Y0062102D01*
X0084060Y0062102D02*
X0084060Y0061619D01*
X0085028Y0060651D01*
X0085028Y0059200D01*
X0085512Y0058102D02*
X0084544Y0058102D01*
X0084060Y0057619D01*
X0084060Y0057135D01*
X0084544Y0056651D01*
X0085995Y0056651D01*
X0085995Y0055684D02*
X0085995Y0057619D01*
X0085512Y0058102D01*
X0087007Y0057619D02*
X0087491Y0058102D01*
X0088458Y0058102D01*
X0088942Y0057619D01*
X0088942Y0057135D01*
X0087007Y0055200D01*
X0088942Y0055200D01*
X0089953Y0055200D02*
X0091888Y0055200D01*
X0090921Y0055200D02*
X0090921Y0058102D01*
X0089953Y0057135D01*
X0090437Y0059200D02*
X0089953Y0059684D01*
X0090437Y0059200D02*
X0091405Y0059200D01*
X0091888Y0059684D01*
X0091888Y0060651D01*
X0091405Y0061135D01*
X0090921Y0061135D01*
X0089953Y0060651D01*
X0089953Y0062102D01*
X0091888Y0062102D01*
X0091888Y0063200D02*
X0090437Y0064651D01*
X0089953Y0064167D02*
X0091888Y0066102D01*
X0089953Y0066102D02*
X0089953Y0063200D01*
X0088942Y0063200D02*
X0088942Y0066102D01*
X0087007Y0066102D02*
X0088942Y0063200D01*
X0088458Y0062102D02*
X0087491Y0062102D01*
X0087007Y0061619D01*
X0087007Y0061135D01*
X0087491Y0060651D01*
X0088458Y0060651D01*
X0088942Y0060167D01*
X0088942Y0059684D01*
X0088458Y0059200D01*
X0087491Y0059200D01*
X0087007Y0059684D01*
X0087007Y0060167D01*
X0087491Y0060651D01*
X0088458Y0060651D02*
X0088942Y0061135D01*
X0088942Y0061619D01*
X0088458Y0062102D01*
X0087007Y0063200D02*
X0087007Y0066102D01*
X0086010Y0066102D02*
X0085043Y0066102D01*
X0085526Y0066102D02*
X0085526Y0063200D01*
X0085043Y0063200D02*
X0086010Y0063200D01*
X0085995Y0062102D02*
X0085995Y0061619D01*
X0085028Y0060651D01*
X0084031Y0063200D02*
X0082096Y0063200D01*
X0082096Y0066102D01*
X0081085Y0065619D02*
X0081085Y0065135D01*
X0080601Y0064651D01*
X0079150Y0064651D01*
X0078138Y0064651D02*
X0076203Y0064651D01*
X0078138Y0066102D02*
X0078138Y0063200D01*
X0079150Y0063200D02*
X0080601Y0063200D01*
X0081085Y0063684D01*
X0081085Y0064167D01*
X0080601Y0064651D01*
X0081085Y0065619D02*
X0080601Y0066102D01*
X0079150Y0066102D01*
X0079150Y0063200D01*
X0078138Y0062102D02*
X0076203Y0062102D01*
X0077171Y0062102D02*
X0077171Y0059200D01*
X0076188Y0058102D02*
X0075221Y0057135D01*
X0081114Y0057619D02*
X0081114Y0055684D01*
X0083049Y0057619D01*
X0083049Y0055684D01*
X0082565Y0055200D01*
X0081598Y0055200D01*
X0081114Y0055684D01*
X0081114Y0057619D02*
X0081598Y0058102D01*
X0082565Y0058102D01*
X0083049Y0057619D01*
X0084060Y0055684D02*
X0084544Y0055200D01*
X0085512Y0055200D01*
X0085995Y0055684D01*
X0081114Y0059200D02*
X0081114Y0062102D01*
X0078421Y0047352D02*
X0078421Y0044450D01*
X0079388Y0044450D02*
X0077453Y0044450D01*
X0076442Y0044450D02*
X0075474Y0045417D01*
X0075958Y0045417D02*
X0074507Y0045417D01*
X0074507Y0044450D02*
X0074507Y0047352D01*
X0075958Y0047352D01*
X0076442Y0046869D01*
X0076442Y0045901D01*
X0075958Y0045417D01*
X0077453Y0046385D02*
X0078421Y0047352D01*
X0077937Y0041352D02*
X0077453Y0040869D01*
X0077937Y0041352D02*
X0078905Y0041352D01*
X0079388Y0040869D01*
X0079388Y0040385D01*
X0077453Y0038450D01*
X0079388Y0038450D01*
X0076442Y0038450D02*
X0075474Y0039417D01*
X0075958Y0039417D02*
X0074507Y0039417D01*
X0074507Y0038450D02*
X0074507Y0041352D01*
X0075958Y0041352D01*
X0076442Y0040869D01*
X0076442Y0039901D01*
X0075958Y0039417D01*
X0075958Y0035352D02*
X0074507Y0035352D01*
X0074507Y0032450D01*
X0074507Y0033417D02*
X0075958Y0033417D01*
X0076442Y0033901D01*
X0076442Y0034869D01*
X0075958Y0035352D01*
X0077453Y0034869D02*
X0077937Y0035352D01*
X0078905Y0035352D01*
X0079388Y0034869D01*
X0079388Y0034385D01*
X0078905Y0033901D01*
X0079388Y0033417D01*
X0079388Y0032934D01*
X0078905Y0032450D01*
X0077937Y0032450D01*
X0077453Y0032934D01*
X0076442Y0032450D02*
X0075474Y0033417D01*
X0078421Y0033901D02*
X0078905Y0033901D01*
D11*
X0049870Y0032250D02*
X0049630Y0032250D01*
D12*
X0024750Y0017250D02*
X0023431Y0017250D01*
X0024750Y0017250D02*
X0044750Y0017250D01*
X0044750Y0047250D01*
X0024750Y0047250D01*
X0023431Y0047250D01*
X0024750Y0047250D02*
X0024750Y0017250D01*
X0037112Y0016108D02*
X0045967Y0016108D01*
X0045967Y0025163D01*
X0047250Y0027250D02*
X0047250Y0037250D01*
X0047252Y0037348D01*
X0047258Y0037446D01*
X0047267Y0037544D01*
X0047281Y0037641D01*
X0047298Y0037738D01*
X0047319Y0037834D01*
X0047344Y0037929D01*
X0047372Y0038023D01*
X0047405Y0038115D01*
X0047440Y0038207D01*
X0047480Y0038297D01*
X0047522Y0038385D01*
X0047569Y0038472D01*
X0047618Y0038556D01*
X0047671Y0038639D01*
X0047727Y0038719D01*
X0047787Y0038798D01*
X0047849Y0038874D01*
X0047914Y0038947D01*
X0047982Y0039018D01*
X0048053Y0039086D01*
X0048126Y0039151D01*
X0048202Y0039213D01*
X0048281Y0039273D01*
X0048361Y0039329D01*
X0048444Y0039382D01*
X0048528Y0039431D01*
X0048615Y0039478D01*
X0048703Y0039520D01*
X0048793Y0039560D01*
X0048885Y0039595D01*
X0048977Y0039628D01*
X0049071Y0039656D01*
X0049166Y0039681D01*
X0049262Y0039702D01*
X0049359Y0039719D01*
X0049456Y0039733D01*
X0049554Y0039742D01*
X0049652Y0039748D01*
X0049750Y0039750D01*
X0049848Y0039748D01*
X0049946Y0039742D01*
X0050044Y0039733D01*
X0050141Y0039719D01*
X0050238Y0039702D01*
X0050334Y0039681D01*
X0050429Y0039656D01*
X0050523Y0039628D01*
X0050615Y0039595D01*
X0050707Y0039560D01*
X0050797Y0039520D01*
X0050885Y0039478D01*
X0050972Y0039431D01*
X0051056Y0039382D01*
X0051139Y0039329D01*
X0051219Y0039273D01*
X0051298Y0039213D01*
X0051374Y0039151D01*
X0051447Y0039086D01*
X0051518Y0039018D01*
X0051586Y0038947D01*
X0051651Y0038874D01*
X0051713Y0038798D01*
X0051773Y0038719D01*
X0051829Y0038639D01*
X0051882Y0038556D01*
X0051931Y0038472D01*
X0051978Y0038385D01*
X0052020Y0038297D01*
X0052060Y0038207D01*
X0052095Y0038115D01*
X0052128Y0038023D01*
X0052156Y0037929D01*
X0052181Y0037834D01*
X0052202Y0037738D01*
X0052219Y0037641D01*
X0052233Y0037544D01*
X0052242Y0037446D01*
X0052248Y0037348D01*
X0052250Y0037250D01*
X0052250Y0027250D01*
X0052248Y0027152D01*
X0052242Y0027054D01*
X0052233Y0026956D01*
X0052219Y0026859D01*
X0052202Y0026762D01*
X0052181Y0026666D01*
X0052156Y0026571D01*
X0052128Y0026477D01*
X0052095Y0026385D01*
X0052060Y0026293D01*
X0052020Y0026203D01*
X0051978Y0026115D01*
X0051931Y0026028D01*
X0051882Y0025944D01*
X0051829Y0025861D01*
X0051773Y0025781D01*
X0051713Y0025702D01*
X0051651Y0025626D01*
X0051586Y0025553D01*
X0051518Y0025482D01*
X0051447Y0025414D01*
X0051374Y0025349D01*
X0051298Y0025287D01*
X0051219Y0025227D01*
X0051139Y0025171D01*
X0051056Y0025118D01*
X0050972Y0025069D01*
X0050885Y0025022D01*
X0050797Y0024980D01*
X0050707Y0024940D01*
X0050615Y0024905D01*
X0050523Y0024872D01*
X0050429Y0024844D01*
X0050334Y0024819D01*
X0050238Y0024798D01*
X0050141Y0024781D01*
X0050044Y0024767D01*
X0049946Y0024758D01*
X0049848Y0024752D01*
X0049750Y0024750D01*
X0049652Y0024752D01*
X0049554Y0024758D01*
X0049456Y0024767D01*
X0049359Y0024781D01*
X0049262Y0024798D01*
X0049166Y0024819D01*
X0049071Y0024844D01*
X0048977Y0024872D01*
X0048885Y0024905D01*
X0048793Y0024940D01*
X0048703Y0024980D01*
X0048615Y0025022D01*
X0048528Y0025069D01*
X0048444Y0025118D01*
X0048361Y0025171D01*
X0048281Y0025227D01*
X0048202Y0025287D01*
X0048126Y0025349D01*
X0048053Y0025414D01*
X0047982Y0025482D01*
X0047914Y0025553D01*
X0047849Y0025626D01*
X0047787Y0025702D01*
X0047727Y0025781D01*
X0047671Y0025861D01*
X0047618Y0025944D01*
X0047569Y0026028D01*
X0047522Y0026115D01*
X0047480Y0026203D01*
X0047440Y0026293D01*
X0047405Y0026385D01*
X0047372Y0026477D01*
X0047344Y0026571D01*
X0047319Y0026666D01*
X0047298Y0026762D01*
X0047281Y0026859D01*
X0047267Y0026956D01*
X0047258Y0027054D01*
X0047252Y0027152D01*
X0047250Y0027250D01*
X0054750Y0028250D02*
X0054838Y0028252D01*
X0054927Y0028258D01*
X0055015Y0028268D01*
X0055102Y0028281D01*
X0055189Y0028299D01*
X0055275Y0028320D01*
X0055360Y0028345D01*
X0055443Y0028374D01*
X0055526Y0028407D01*
X0055606Y0028443D01*
X0055685Y0028482D01*
X0055763Y0028525D01*
X0055838Y0028572D01*
X0055911Y0028622D01*
X0055982Y0028675D01*
X0056051Y0028731D01*
X0056117Y0028790D01*
X0056180Y0028852D01*
X0056240Y0028916D01*
X0056298Y0028983D01*
X0056352Y0029053D01*
X0056404Y0029125D01*
X0056452Y0029199D01*
X0056497Y0029276D01*
X0056538Y0029354D01*
X0056576Y0029434D01*
X0056610Y0029515D01*
X0056641Y0029598D01*
X0056668Y0029683D01*
X0056691Y0029768D01*
X0056710Y0029854D01*
X0056726Y0029942D01*
X0056738Y0030029D01*
X0056746Y0030117D01*
X0056750Y0030206D01*
X0056750Y0030294D01*
X0056746Y0030383D01*
X0056738Y0030471D01*
X0056726Y0030558D01*
X0056710Y0030646D01*
X0056691Y0030732D01*
X0056668Y0030817D01*
X0056641Y0030902D01*
X0056610Y0030985D01*
X0056576Y0031066D01*
X0056538Y0031146D01*
X0056497Y0031224D01*
X0056452Y0031301D01*
X0056404Y0031375D01*
X0056352Y0031447D01*
X0056298Y0031517D01*
X0056240Y0031584D01*
X0056180Y0031648D01*
X0056117Y0031710D01*
X0056051Y0031769D01*
X0055982Y0031825D01*
X0055911Y0031878D01*
X0055838Y0031928D01*
X0055763Y0031975D01*
X0055685Y0032018D01*
X0055606Y0032057D01*
X0055526Y0032093D01*
X0055443Y0032126D01*
X0055360Y0032155D01*
X0055275Y0032180D01*
X0055189Y0032201D01*
X0055102Y0032219D01*
X0055015Y0032232D01*
X0054927Y0032242D01*
X0054838Y0032248D01*
X0054750Y0032250D01*
X0034900Y0049490D02*
X0033380Y0049490D01*
X0033380Y0067207D01*
X0034900Y0067207D01*
X0033400Y0058545D02*
X0028900Y0058545D01*
X0028900Y0051045D02*
X0033400Y0051045D01*
X0080750Y0048550D02*
X0080750Y0043950D01*
X0092750Y0043950D01*
X0092750Y0048550D01*
X0080750Y0048550D01*
X0080750Y0042550D02*
X0092750Y0042550D01*
X0092750Y0037950D01*
X0080750Y0037950D01*
X0080750Y0042550D01*
X0080750Y0036550D02*
X0080750Y0031950D01*
X0092750Y0031950D01*
X0092750Y0036550D01*
X0080750Y0036550D01*
X0080750Y0030550D02*
X0092750Y0030550D01*
X0092750Y0025950D01*
X0080750Y0025950D01*
X0080750Y0030550D01*
X0080750Y0024550D02*
X0092750Y0024550D01*
X0092750Y0019950D01*
X0080750Y0019950D01*
X0080750Y0024550D01*
X0080750Y0018550D02*
X0092750Y0018550D01*
X0092750Y0013950D01*
X0080750Y0013950D01*
X0080750Y0018550D01*
X0100356Y0033951D02*
X0100750Y0033951D01*
X0106262Y0037494D02*
X0106262Y0043006D01*
X0105474Y0042612D02*
X0105474Y0041037D01*
X0103900Y0042612D01*
X0105474Y0042612D01*
X0105081Y0042219D02*
X0104687Y0042219D01*
X0105081Y0041825D01*
X0100750Y0046549D02*
X0100356Y0046549D01*
X0104550Y0049750D02*
X0106550Y0049750D01*
X0106550Y0047750D01*
X0094844Y0043006D02*
X0094844Y0037494D01*
D13*
X0056085Y0023350D02*
X0056087Y0023397D01*
X0056093Y0023444D01*
X0056103Y0023491D01*
X0056116Y0023536D01*
X0056134Y0023580D01*
X0056155Y0023622D01*
X0056179Y0023663D01*
X0056207Y0023701D01*
X0056238Y0023737D01*
X0056272Y0023770D01*
X0056308Y0023800D01*
X0056347Y0023827D01*
X0056388Y0023851D01*
X0056431Y0023871D01*
X0056475Y0023887D01*
X0056521Y0023900D01*
X0056567Y0023909D01*
X0056615Y0023914D01*
X0056662Y0023915D01*
X0056709Y0023912D01*
X0056756Y0023905D01*
X0056802Y0023894D01*
X0056847Y0023880D01*
X0056891Y0023861D01*
X0056932Y0023839D01*
X0056972Y0023814D01*
X0057010Y0023785D01*
X0057045Y0023754D01*
X0057078Y0023719D01*
X0057107Y0023682D01*
X0057133Y0023643D01*
X0057156Y0023601D01*
X0057175Y0023558D01*
X0057191Y0023513D01*
X0057203Y0023467D01*
X0057211Y0023421D01*
X0057215Y0023374D01*
X0057215Y0023326D01*
X0057211Y0023279D01*
X0057203Y0023233D01*
X0057191Y0023187D01*
X0057175Y0023142D01*
X0057156Y0023099D01*
X0057133Y0023057D01*
X0057107Y0023018D01*
X0057078Y0022981D01*
X0057045Y0022946D01*
X0057010Y0022915D01*
X0056972Y0022886D01*
X0056933Y0022861D01*
X0056891Y0022839D01*
X0056847Y0022820D01*
X0056802Y0022806D01*
X0056756Y0022795D01*
X0056709Y0022788D01*
X0056662Y0022785D01*
X0056615Y0022786D01*
X0056567Y0022791D01*
X0056521Y0022800D01*
X0056475Y0022813D01*
X0056431Y0022829D01*
X0056388Y0022849D01*
X0056347Y0022873D01*
X0056308Y0022900D01*
X0056272Y0022930D01*
X0056238Y0022963D01*
X0056207Y0022999D01*
X0056179Y0023037D01*
X0056155Y0023078D01*
X0056134Y0023120D01*
X0056116Y0023164D01*
X0056103Y0023209D01*
X0056093Y0023256D01*
X0056087Y0023303D01*
X0056085Y0023350D01*
X0052085Y0019350D02*
X0052087Y0019397D01*
X0052093Y0019444D01*
X0052103Y0019491D01*
X0052116Y0019536D01*
X0052134Y0019580D01*
X0052155Y0019622D01*
X0052179Y0019663D01*
X0052207Y0019701D01*
X0052238Y0019737D01*
X0052272Y0019770D01*
X0052308Y0019800D01*
X0052347Y0019827D01*
X0052388Y0019851D01*
X0052431Y0019871D01*
X0052475Y0019887D01*
X0052521Y0019900D01*
X0052567Y0019909D01*
X0052615Y0019914D01*
X0052662Y0019915D01*
X0052709Y0019912D01*
X0052756Y0019905D01*
X0052802Y0019894D01*
X0052847Y0019880D01*
X0052891Y0019861D01*
X0052932Y0019839D01*
X0052972Y0019814D01*
X0053010Y0019785D01*
X0053045Y0019754D01*
X0053078Y0019719D01*
X0053107Y0019682D01*
X0053133Y0019643D01*
X0053156Y0019601D01*
X0053175Y0019558D01*
X0053191Y0019513D01*
X0053203Y0019467D01*
X0053211Y0019421D01*
X0053215Y0019374D01*
X0053215Y0019326D01*
X0053211Y0019279D01*
X0053203Y0019233D01*
X0053191Y0019187D01*
X0053175Y0019142D01*
X0053156Y0019099D01*
X0053133Y0019057D01*
X0053107Y0019018D01*
X0053078Y0018981D01*
X0053045Y0018946D01*
X0053010Y0018915D01*
X0052972Y0018886D01*
X0052933Y0018861D01*
X0052891Y0018839D01*
X0052847Y0018820D01*
X0052802Y0018806D01*
X0052756Y0018795D01*
X0052709Y0018788D01*
X0052662Y0018785D01*
X0052615Y0018786D01*
X0052567Y0018791D01*
X0052521Y0018800D01*
X0052475Y0018813D01*
X0052431Y0018829D01*
X0052388Y0018849D01*
X0052347Y0018873D01*
X0052308Y0018900D01*
X0052272Y0018930D01*
X0052238Y0018963D01*
X0052207Y0018999D01*
X0052179Y0019037D01*
X0052155Y0019078D01*
X0052134Y0019120D01*
X0052116Y0019164D01*
X0052103Y0019209D01*
X0052093Y0019256D01*
X0052087Y0019303D01*
X0052085Y0019350D01*
X0022270Y0032585D02*
X0022270Y0038884D01*
X0022256Y0038943D01*
X0022239Y0039001D01*
X0022218Y0039058D01*
X0022194Y0039114D01*
X0022166Y0039168D01*
X0022136Y0039220D01*
X0022102Y0039271D01*
X0022065Y0039319D01*
X0022026Y0039365D01*
X0021983Y0039408D01*
X0021939Y0039449D01*
X0021891Y0039487D01*
X0021842Y0039522D01*
X0021790Y0039554D01*
X0021737Y0039583D01*
X0021682Y0039609D01*
X0021626Y0039631D01*
X0021568Y0039650D01*
X0021509Y0039666D01*
X0021450Y0039677D01*
X0021390Y0039686D01*
X0021329Y0039690D01*
X0021269Y0039691D01*
X0021208Y0039688D01*
X0021148Y0039682D01*
X0021088Y0039672D01*
X0015577Y0039672D02*
X0015515Y0039682D01*
X0015452Y0039688D01*
X0015389Y0039691D01*
X0015326Y0039690D01*
X0015263Y0039684D01*
X0015201Y0039675D01*
X0015139Y0039662D01*
X0015078Y0039645D01*
X0015019Y0039624D01*
X0014961Y0039599D01*
X0014904Y0039571D01*
X0014850Y0039539D01*
X0014797Y0039504D01*
X0014747Y0039466D01*
X0014699Y0039425D01*
X0014654Y0039381D01*
X0014612Y0039334D01*
X0014573Y0039284D01*
X0014537Y0039232D01*
X0014505Y0039178D01*
X0014475Y0039123D01*
X0014450Y0039065D01*
X0014428Y0039006D01*
X0014410Y0038945D01*
X0014395Y0038884D01*
X0014396Y0038884D02*
X0014396Y0032585D01*
X0014395Y0032584D02*
X0014410Y0032523D01*
X0014428Y0032462D01*
X0014450Y0032403D01*
X0014475Y0032345D01*
X0014505Y0032290D01*
X0014537Y0032236D01*
X0014573Y0032184D01*
X0014612Y0032134D01*
X0014654Y0032087D01*
X0014699Y0032043D01*
X0014747Y0032002D01*
X0014797Y0031964D01*
X0014850Y0031929D01*
X0014904Y0031897D01*
X0014961Y0031869D01*
X0015019Y0031844D01*
X0015078Y0031823D01*
X0015139Y0031806D01*
X0015201Y0031793D01*
X0015263Y0031784D01*
X0015326Y0031778D01*
X0015389Y0031777D01*
X0015452Y0031780D01*
X0015515Y0031786D01*
X0015577Y0031796D01*
X0021088Y0031796D02*
X0021148Y0031786D01*
X0021208Y0031780D01*
X0021269Y0031777D01*
X0021329Y0031778D01*
X0021390Y0031782D01*
X0021450Y0031791D01*
X0021509Y0031802D01*
X0021568Y0031818D01*
X0021626Y0031837D01*
X0021682Y0031859D01*
X0021737Y0031885D01*
X0021790Y0031914D01*
X0021842Y0031946D01*
X0021891Y0031981D01*
X0021939Y0032019D01*
X0021983Y0032060D01*
X0022026Y0032103D01*
X0022065Y0032149D01*
X0022102Y0032197D01*
X0022136Y0032248D01*
X0022166Y0032300D01*
X0022194Y0032354D01*
X0022218Y0032410D01*
X0022239Y0032467D01*
X0022256Y0032525D01*
X0022270Y0032584D01*
D14*
X0086750Y0034250D03*
X0086750Y0028250D03*
X0086750Y0022250D03*
X0086750Y0016250D03*
X0086750Y0040250D03*
X0086750Y0046250D03*
D15*
X0073049Y0040248D02*
X0073049Y0020152D01*
X0054451Y0020152D02*
X0054451Y0040248D01*
M02*
